<?xml version="1.0"?>
<svg xmlns="http://www.w3.org/2000/svg" xmlns:xlink="http://www.w3.org/1999/xlink" version="1.1" id="Capa_1" x="0px" y="0px" viewBox="0 0 512 512" style="enable-background:new 0 0 512 512;" xml:space="preserve" width="512px" height="512px" class=""><g><g>
	<g>
		<path d="M448.376,128.25h-40.579V87.671c0-4.15-3.364-7.515-7.515-7.515H263.348l-0.017-8.616C263.276,32.093,231.139,0,191.602,0    c-39.502,0-71.64,32.138-71.64,71.64v8.517H63.624c-4.151,0-7.515,3.365-7.515,7.515v368.72c0,4.15,3.364,7.515,7.515,7.515    h40.579v40.579c0,4.15,3.364,7.515,7.515,7.515h336.658c4.151,0,7.515-3.365,7.515-7.515v-368.72    C455.89,131.615,452.527,128.25,448.376,128.25z M248.485,163.633c0.014,9.814-3.798,19.044-10.733,25.989    c-6.936,6.946-16.16,10.77-25.975,10.77c-20.241,0-36.709-16.467-36.709-36.708V143.28h33.135l-0.07,24.527    c-0.012,4.15,3.343,7.525,7.494,7.536c0.007,0,0.015,0,0.021,0c4.141,0,7.503-3.351,7.515-7.494l0.07-24.569h25.211    L248.485,163.633z M208.342,95.186l-0.094,33.065H175.07V95.186H208.342z M175.07,80.157v-8.379c0-9.192,7.479-16.67,16.671-16.67    c4.461,0,8.652,1.739,11.801,4.898c3.151,3.157,4.878,7.352,4.867,11.81l-0.024,8.341H175.07z M248.414,128.25h-25.137    l0.094-33.065h24.977L248.414,128.25z M134.991,71.64L134.991,71.64c0.001-31.215,25.397-56.611,56.701-56.611    c31.172,0,56.568,25.361,56.611,56.536l0.016,8.591h-24.904l0.024-8.301c0.021-8.482-3.266-16.459-9.256-22.465    c-5.991-6.005-13.96-9.312-22.443-9.312c-17.479,0-31.7,14.22-31.7,31.699v8.379h-25.049V71.64z M104.204,135.765v313.112H71.139    V95.186h88.902v33.065h-48.322C107.567,128.25,104.204,131.615,104.204,135.765z M440.861,496.971H119.233V143.28h40.808v20.404    c0,28.528,23.209,51.737,51.738,51.737c13.833,0,26.834-5.391,36.609-15.179c9.774-9.788,15.147-22.797,15.128-36.635    l-0.042-20.328h40.119c4.151,0,7.515-3.365,7.515-7.515c0-4.15-3.364-7.515-7.515-7.515h-40.149l-0.066-33.065h129.39v33.065    h-52.102c-4.151,0-7.515,3.365-7.515,7.515c0,4.15,3.364,7.515,7.515,7.515h100.196V496.971z" data-original="#000000" class="active-path" data-old_color="#000000" fill="#233B96"/>
	</g>
</g><g>
	<g>
		<path d="M312.11,240.47H159.812c-4.151,0-7.515,3.365-7.515,7.515c0,4.15,3.364,7.515,7.515,7.515H312.11    c4.151,0,7.515-3.365,7.515-7.515C319.624,243.834,316.261,240.47,312.11,240.47z" data-original="#000000" class="active-path" data-old_color="#000000" fill="#233B96"/>
	</g>
</g><g>
	<g>
		<path d="M416.313,320.626H272.031c-4.151,0-7.515,3.365-7.515,7.515c0,4.15,3.364,7.515,7.515,7.515h144.282    c4.151,0,7.515-3.365,7.515-7.515C423.828,323.991,420.464,320.626,416.313,320.626z" data-original="#000000" class="active-path" data-old_color="#000000" fill="#233B96"/>
	</g>
</g><g>
	<g>
		<path d="M312.11,400.783H159.812c-4.151,0-7.515,3.365-7.515,7.515c0,4.15,3.364,7.515,7.515,7.515H312.11    c4.151,0,7.515-3.365,7.515-7.515C319.624,404.147,316.261,400.783,312.11,400.783z" data-original="#000000" class="active-path" data-old_color="#000000" fill="#233B96"/>
	</g>
</g><g>
	<g>
		<path d="M416.313,240.47h-72.141c-4.151,0-7.515,3.365-7.515,7.515c0,4.15,3.364,7.515,7.515,7.515h72.141    c4.151,0,7.515-3.365,7.515-7.515C423.828,243.834,420.464,240.47,416.313,240.47z" data-original="#000000" class="active-path" data-old_color="#000000" fill="#233B96"/>
	</g>
</g><g>
	<g>
		<path d="M239.969,320.626h-80.157c-4.151,0-7.515,3.365-7.515,7.515c0,4.15,3.364,7.515,7.515,7.515h80.157    c4.151,0,7.515-3.365,7.515-7.515C247.483,323.991,244.12,320.626,239.969,320.626z" data-original="#000000" class="active-path" data-old_color="#000000" fill="#233B96"/>
	</g>
</g><g>
	<g>
		<path d="M416.313,400.783h-72.141c-4.151,0-7.515,3.365-7.515,7.515c0,4.15,3.364,7.515,7.515,7.515h72.141    c4.151,0,7.515-3.365,7.515-7.515C423.828,404.147,420.464,400.783,416.313,400.783z" data-original="#000000" class="active-path" data-old_color="#000000" fill="#233B96"/>
	</g>
</g></g> </svg>
