<svg xmlns="http://www.w3.org/2000/svg" viewBox="0 0 1312.42 101.26"><defs><style>.cls-1{fill:none;stroke:#0091d1;stroke-miterlimit:10;stroke-width:0.9px;}</style></defs><g id="Capa_2" data-name="Capa 2"><g id="Capa_1-2" data-name="Capa 1"><path class="cls-1" d="M115.7,47.75A3.87,3.87,0,0,1,117,50.49a3.73,3.73,0,0,1-1.33,2.57L69.37,99.57a3.35,3.35,0,0,1-2.65,1.24,3.65,3.65,0,0,1-2.57-1.24l-13-12.67a4.34,4.34,0,0,1-1.33-3.19,3.61,3.61,0,0,1,1.06-2.66L81.33,50.41,50.86,19.85a3.6,3.6,0,0,1-.8-1.42c-.11-.47-.2-.92-.26-1.33A5.1,5.1,0,0,1,51,14.35L63.79,1.6A3.79,3.79,0,0,1,66.72.45a3.14,3.14,0,0,1,2.57,1Z"/><path class="cls-1" d="M172.75,47.75a3.9,3.9,0,0,1,1.32,2.74,3.76,3.76,0,0,1-1.32,2.57L126.42,99.57a3.39,3.39,0,0,1-2.66,1.24,3.69,3.69,0,0,1-2.57-1.24l-13-12.67a4.38,4.38,0,0,1-1.33-3.19,3.62,3.62,0,0,1,1.07-2.66l30.47-30.64L107.91,19.85a3.48,3.48,0,0,1-.8-1.42,13.09,13.09,0,0,1-.27-1.33,5.1,5.1,0,0,1,1.24-2.75L120.84,1.6A3.77,3.77,0,0,1,123.76.45a3.13,3.13,0,0,1,2.57,1Z"/><path class="cls-1" d="M271.3,47.75a3.87,3.87,0,0,1,1.33,2.74,3.73,3.73,0,0,1-1.33,2.57L225,99.57a3.39,3.39,0,0,1-2.66,1.24,3.67,3.67,0,0,1-2.57-1.24l-13-12.67a4.34,4.34,0,0,1-1.33-3.19,3.65,3.65,0,0,1,1.06-2.66l30.48-30.64L206.46,19.85a3.57,3.57,0,0,1-.79-1.42,13.09,13.09,0,0,1-.27-1.33,5.1,5.1,0,0,1,1.24-2.75L219.4,1.6A3.77,3.77,0,0,1,222.32.45a3.13,3.13,0,0,1,2.57,1Z"/><path class="cls-1" d="M411.3,47.75a3.87,3.87,0,0,1,1.33,2.74,3.73,3.73,0,0,1-1.33,2.57L365,99.57a3.39,3.39,0,0,1-2.66,1.24,3.67,3.67,0,0,1-2.57-1.24l-13-12.67a4.34,4.34,0,0,1-1.33-3.19,3.61,3.61,0,0,1,1.06-2.66l30.47-30.64L346.46,19.85a3.45,3.45,0,0,1-.79-1.42,13.09,13.09,0,0,1-.27-1.33,5.1,5.1,0,0,1,1.24-2.75L359.39,1.6A3.79,3.79,0,0,1,362.32.45a3.13,3.13,0,0,1,2.57,1Z"/><path class="cls-1" d="M.45,45.44a2.33,2.33,0,0,1,2.63-2.63H14V31.26c0-1.76,1-2.64,2.87-2.64H30.32A2.33,2.33,0,0,1,33,31.26V42.81h11a2.71,2.71,0,0,1,1.85.69,2.46,2.46,0,0,1,.78,1.94V57.6a3.22,3.22,0,0,1-.72,1.88,2.25,2.25,0,0,1-1.91,1H33V72.08a2.79,2.79,0,0,1-.66,1.86,2.43,2.43,0,0,1-2,.78H16.91A3.25,3.25,0,0,1,15,74a2.27,2.27,0,0,1-1-1.92V60.47h-11c-1.75,0-2.63-1-2.63-2.87Z"/><path class="cls-1" d="M293.54,45.44a2.33,2.33,0,0,1,2.64-2.63h10.95V31.26c0-1.76,1-2.64,2.87-2.64h13.41a2.33,2.33,0,0,1,2.64,2.64V42.81H337a2.71,2.71,0,0,1,1.86.69,2.49,2.49,0,0,1,.77,1.94V57.6a3.21,3.21,0,0,1-.71,1.88,2.26,2.26,0,0,1-1.92,1H326.05V72.08a2.79,2.79,0,0,1-.66,1.86,2.45,2.45,0,0,1-2,.78H310a3.25,3.25,0,0,1-1.88-.72,2.26,2.26,0,0,1-1-1.92V60.47H296.18c-1.76,0-2.64-1-2.64-2.87Z"/><path class="cls-1" d="M562.57,47.75a3.87,3.87,0,0,1,1.33,2.74,3.73,3.73,0,0,1-1.33,2.57L516.25,99.57a3.39,3.39,0,0,1-2.66,1.24A3.67,3.67,0,0,1,511,99.57L498,86.9a4.34,4.34,0,0,1-1.33-3.19,3.65,3.65,0,0,1,1.06-2.66l30.48-30.64L497.73,19.85a3.45,3.45,0,0,1-.79-1.42,13.09,13.09,0,0,1-.27-1.33,5.1,5.1,0,0,1,1.24-2.75L510.67,1.6A3.77,3.77,0,0,1,513.59.45a3.13,3.13,0,0,1,2.57,1Z"/><path class="cls-1" d="M619.62,47.75A3.91,3.91,0,0,1,621,50.49a3.78,3.78,0,0,1-1.33,2.57L573.29,99.57a3.37,3.37,0,0,1-2.66,1.24,3.65,3.65,0,0,1-2.56-1.24L555,86.9a4.37,4.37,0,0,1-1.32-3.19,3.61,3.61,0,0,1,1.06-2.66l30.47-30.64L554.78,19.85a3.6,3.6,0,0,1-.8-1.42,10.7,10.7,0,0,1-.26-1.33A5,5,0,0,1,555,14.35L567.71,1.6A3.77,3.77,0,0,1,570.63.45a3.12,3.12,0,0,1,2.57,1Z"/><path class="cls-1" d="M718.18,47.75a3.91,3.91,0,0,1,1.33,2.74,3.78,3.78,0,0,1-1.33,2.57L671.85,99.57a3.37,3.37,0,0,1-2.66,1.24,3.69,3.69,0,0,1-2.57-1.24l-13-12.67a4.38,4.38,0,0,1-1.33-3.19,3.62,3.62,0,0,1,1.07-2.66l30.47-30.64L653.34,19.85a3.48,3.48,0,0,1-.8-1.42,13.09,13.09,0,0,1-.27-1.33,5.18,5.18,0,0,1,1.24-2.75L666.27,1.6A3.77,3.77,0,0,1,669.19.45a3.13,3.13,0,0,1,2.57,1Z"/><path class="cls-1" d="M1012.73,47.75a3.87,3.87,0,0,1,1.33,2.74,3.73,3.73,0,0,1-1.33,2.57L966.41,99.57a3.39,3.39,0,0,1-2.66,1.24,3.67,3.67,0,0,1-2.57-1.24l-13-12.67a4.34,4.34,0,0,1-1.33-3.19,3.61,3.61,0,0,1,1.06-2.66l30.47-30.64L947.89,19.85a3.45,3.45,0,0,1-.79-1.42,13.09,13.09,0,0,1-.27-1.33,5.1,5.1,0,0,1,1.24-2.75L960.83,1.6A3.75,3.75,0,0,1,963.75.45a3.13,3.13,0,0,1,2.57,1Z"/><path class="cls-1" d="M1135.93,47.75a3.87,3.87,0,0,1,1.33,2.74,3.73,3.73,0,0,1-1.33,2.57L1089.6,99.57a3.35,3.35,0,0,1-2.65,1.24,3.65,3.65,0,0,1-2.57-1.24l-13-12.67a4.34,4.34,0,0,1-1.33-3.19,3.61,3.61,0,0,1,1.06-2.66l30.47-30.64-30.47-30.56a3.6,3.6,0,0,1-.8-1.42,12.91,12.91,0,0,1-.26-1.33,5.1,5.1,0,0,1,1.24-2.75L1084,1.6A3.79,3.79,0,0,1,1087,.45a3.14,3.14,0,0,1,2.57,1Z"/><path class="cls-1" d="M1310.65,47.75a3.91,3.91,0,0,1,1.33,2.74,3.78,3.78,0,0,1-1.33,2.57l-46.33,46.51a3.37,3.37,0,0,1-2.66,1.24,3.65,3.65,0,0,1-2.56-1.24l-13-12.67a4.37,4.37,0,0,1-1.32-3.19,3.61,3.61,0,0,1,1.06-2.66l30.47-30.64-30.47-30.56a3.48,3.48,0,0,1-.8-1.42,10.7,10.7,0,0,1-.26-1.33,5,5,0,0,1,1.24-2.75L1258.74,1.6a3.77,3.77,0,0,1,2.92-1.15,3.13,3.13,0,0,1,2.57,1Z"/><path class="cls-1" d="M858.18,47.75a3.9,3.9,0,0,1,1.32,2.74,3.76,3.76,0,0,1-1.32,2.57L811.85,99.57a3.39,3.39,0,0,1-2.66,1.24,3.69,3.69,0,0,1-2.57-1.24l-13-12.67a4.38,4.38,0,0,1-1.33-3.19,3.62,3.62,0,0,1,1.07-2.66l30.47-30.64L793.34,19.85a3.48,3.48,0,0,1-.8-1.42,13.09,13.09,0,0,1-.27-1.33,5.1,5.1,0,0,1,1.24-2.75L806.27,1.6A3.77,3.77,0,0,1,809.19.45a3.13,3.13,0,0,1,2.57,1Z"/><path class="cls-1" d="M447.32,45.44A2.33,2.33,0,0,1,450,42.81h11V31.26c0-1.76,1-2.64,2.87-2.64h13.41a2.33,2.33,0,0,1,2.64,2.64V42.81h10.95a2.71,2.71,0,0,1,1.86.69,2.49,2.49,0,0,1,.77,1.94V57.6a3.27,3.27,0,0,1-.71,1.88,2.26,2.26,0,0,1-1.92,1H479.83V72.08a2.79,2.79,0,0,1-.66,1.86,2.45,2.45,0,0,1-2,.78H463.78A3.22,3.22,0,0,1,461.9,74a2.26,2.26,0,0,1-1-1.92V60.47H450c-1.76,0-2.64-1-2.64-2.87Z"/><path class="cls-1" d="M740.42,45.44a2.32,2.32,0,0,1,2.63-2.63h11V31.26q0-2.64,2.88-2.64h13.41a2.33,2.33,0,0,1,2.63,2.64V42.81h11a2.71,2.71,0,0,1,1.86.69,2.46,2.46,0,0,1,.78,1.94V57.6a3.22,3.22,0,0,1-.72,1.88,2.26,2.26,0,0,1-1.92,1h-11V72.08a2.79,2.79,0,0,1-.66,1.86,2.44,2.44,0,0,1-2,.78H756.88A3.25,3.25,0,0,1,755,74a2.26,2.26,0,0,1-1-1.92V60.47h-11c-1.76,0-2.63-1-2.63-2.87Z"/><path class="cls-1" d="M873.69,45.44a2.33,2.33,0,0,1,2.64-2.63h10.95V31.26c0-1.76,1-2.64,2.87-2.64h13.41a2.33,2.33,0,0,1,2.64,2.64V42.81h10.95a2.71,2.71,0,0,1,1.86.69,2.46,2.46,0,0,1,.78,1.94V57.6a3.22,3.22,0,0,1-.72,1.88,2.26,2.26,0,0,1-1.92,1H906.2V72.08a2.79,2.79,0,0,1-.66,1.86,2.45,2.45,0,0,1-2,.78H890.15a3.25,3.25,0,0,1-1.88-.72,2.26,2.26,0,0,1-1-1.92V60.47H876.33c-1.76,0-2.64-1-2.64-2.87Z"/><path class="cls-1" d="M1215.44,43.91c0-2.06,1.07-3.09,3.23-3.09h14.19q3.08,0,3.08,3.09V57.8a4.16,4.16,0,0,1-.81,2.46,2.62,2.62,0,0,1-2.27,1.14h-14.19c-2.16,0-3.23-1.2-3.23-3.6Z"/><path class="cls-1" d="M1169.52,43.91c0-2.06,1.07-3.09,3.23-3.09h14.19q3.07,0,3.08,3.09V57.8a4.16,4.16,0,0,1-.81,2.46,2.61,2.61,0,0,1-2.27,1.14h-14.19c-2.16,0-3.23-1.2-3.23-3.6Z"/><path class="cls-1" d="M1033.69,43.91c0-2.06,1.07-3.09,3.23-3.09h14.18q3.09,0,3.09,3.09V57.8a4.16,4.16,0,0,1-.81,2.46,2.63,2.63,0,0,1-2.28,1.14h-14.18c-2.16,0-3.23-1.2-3.23-3.6Z"/></g></g></svg>