<?xml version="1.0" encoding="utf-8"?>
<!-- Generator: Adobe Illustrator 22.0.1, SVG Export Plug-In . SVG Version: 6.00 Build 0)  -->
<svg version="1.1" id="Capa_1" xmlns="http://www.w3.org/2000/svg" xmlns:xlink="http://www.w3.org/1999/xlink" x="0px" y="0px"
	 viewBox="0 0 58 58" style="enable-background:new 0 0 58 58;" xml:space="preserve">
<style type="text/css">
	.st0{fill:#233B96;}
</style>
<g>
	<path class="st0" d="M51,12.2l-0.8-0.8L40.1,1.3l-0.8-0.8C39,0.2,38.5,0,38,0H9C7.8,0,6.5,0.9,6.5,2.9V39v16.5V56
		c0,0.8,0.8,1.7,1.8,1.9c0.1,0,0.1,0,0.1,0c0.2,0,0.3,0,0.5,0H49c0.2,0,0.3,0,0.5,0c0.1,0,0.1,0,0.2,0c1-0.3,1.8-1.1,1.8-1.9v-0.5
		V39V14C51.5,13.2,51.4,12.6,51,12.2z M47.9,12h-8.4V3.6L47.9,12z M9,56c-0.1,0-0.1,0-0.2,0c-0.2-0.1-0.3-0.2-0.3-0.4V41h41v14.5
		c0,0.2-0.1,0.3-0.3,0.4c-0.1,0-0.1,0-0.2,0H9z M8.5,39V2.9C8.5,2.7,8.5,2,9,2h28.6c0,0.1-0.1,0.3-0.1,0.4V14h11.6
		c0.1,0,0.3,0,0.4-0.1c0,0,0,0,0,0v25H8.5z"/>
	<path class="st0" d="M22,44.7c-0.3-0.3-0.7-0.5-1.1-0.6c-0.4-0.1-0.8-0.2-1.3-0.2h-2.9V54h1.6v-3.6h1.2c0.5,0,1-0.1,1.4-0.2
		s0.8-0.4,1.1-0.7c0.3-0.3,0.6-0.6,0.7-1c0.2-0.4,0.3-0.9,0.3-1.4c0-0.5-0.1-0.9-0.3-1.3S22.4,45,22,44.7z M21.4,48.1
		c-0.1,0.3-0.2,0.5-0.4,0.6s-0.3,0.3-0.5,0.3c-0.2,0.1-0.4,0.1-0.6,0.1h-1.5v-4h1.2c0.4,0,0.8,0.1,1,0.2c0.3,0.1,0.5,0.3,0.6,0.5
		c0.1,0.2,0.2,0.4,0.3,0.6c0,0.2,0.1,0.4,0.1,0.6C21.6,47.5,21.5,47.8,21.4,48.1z"/>
	<path class="st0" d="M32,45.4c-0.4-0.4-1-0.8-1.6-1.1s-1.4-0.4-2.2-0.4h-3V54h3.8c0.1,0,0.3,0,0.6,0c0.3,0,0.6-0.1,0.9-0.2
		c0.3-0.1,0.6-0.3,1-0.5s0.6-0.5,0.9-0.9s0.5-0.9,0.7-1.5s0.3-1.3,0.3-2.1c0-0.6-0.1-1.2-0.3-1.8C32.7,46.4,32.4,45.8,32,45.4z
		 M30.8,51.7c-0.5,0.7-1.3,1.1-2.4,1.1h-1.6v-7.6h1c0.8,0,1.4,0.1,1.9,0.3s0.9,0.5,1.2,0.8s0.5,0.7,0.6,1.1c0.1,0.4,0.1,0.8,0.1,1.2
		C31.5,50,31.3,51,30.8,51.7z"/>
	<polygon class="st0" points="35.6,54 37.3,54 37.3,49.5 41.5,49.5 41.5,48.3 37.3,48.3 37.3,45.2 41.9,45.2 41.9,43.9 35.6,43.9 	
		"/>
	<path class="st0" d="M38.4,23c-0.9,0-2,0.1-3.4,0.4c-1.8-1.9-3.7-4.8-5.1-7.6c1.3-5.6,0.7-6.4,0.4-6.8c-0.3-0.4-0.8-1-1.3-1
		c-0.2,0-0.8,0.1-1,0.2c-0.6,0.2-0.9,0.6-1.1,1.2c-0.7,1.7,0.3,4.5,1.3,6.6c-0.9,3.4-2.3,7.5-3.8,10.8c-3.8,1.7-5.8,3.4-6,5.1
		c-0.1,0.6,0.1,1.5,1.1,2.2c0.3,0.2,0.6,0.3,1,0.3l0,0c0.9,0,1.8-0.7,2.8-2.1c0.7-1,1.5-2.5,2.4-4.3c2.7-1.2,6-2.2,8.8-2.8
		c1.6,1.5,3,2.3,4.2,2.3c0.9,0,1.7-0.4,2.2-1.2c0.6-0.8,0.7-1.5,0.4-2.2C40.9,23.3,40,23,38.4,23z M20.5,32.6
		c-0.5-0.4-0.4-0.6-0.4-0.7c0.1-0.6,0.9-1.5,3.1-2.7C21.6,32.2,20.7,32.6,20.5,32.6z M28.7,9.7c0,0,1,1.1,0.1,3.2
		C27.4,11.5,28.6,9.7,28.7,9.7z M26.7,25.7c1-2.4,2-5.1,2.7-7.6c1.1,2,2.5,4,3.8,5.5C31,24.2,28.8,24.9,26.7,25.7z M39.6,25.3
		c-0.3,0.4-1,0.4-1.2,0.4c-0.5,0-0.7-0.3-1.5-0.9c0.7-0.1,1.3-0.1,1.8-0.1c0.9,0,1.1,0.1,1.2,0.2C39.8,24.9,39.7,25.1,39.6,25.3z"/>
</g>
</svg>
