<svg xmlns="http://www.w3.org/2000/svg" viewBox="0 0 1364.83 196.23"><defs><style>.cls-1{fill:#0091d1;}.cls-2{fill:#b1006a;}</style></defs><g id="Capa_2" data-name="Capa 2"><g id="Capa_1-2" data-name="Capa 1"><path class="cls-1" d="M0,8.73A5.86,5.86,0,0,1,1.48,4.49,5.23,5.23,0,0,1,5,2.82H127.83a5.59,5.59,0,0,1,4.42,1.67A6.48,6.48,0,0,1,133.73,9V40.7a6.67,6.67,0,0,1-1.54,4.16,5.34,5.34,0,0,1-4.49,2h-78V86.63h57.62A6.31,6.31,0,0,1,111.4,88a5.21,5.21,0,0,1,1.67,4.3V123a6.9,6.9,0,0,1-1.48,4.17,4.74,4.74,0,0,1-4,2H49.67v58.78q0,5.52-5.91,5.52H4.62C1.54,193,0,191.19,0,188Z"/><path class="cls-1" d="M150.67,8.34a5.71,5.71,0,0,1,1.54-4,5.49,5.49,0,0,1,4.24-1.66h38a5.93,5.93,0,0,1,4,1.54,5.51,5.51,0,0,1,1.93,4.1V148h59.33a5.65,5.65,0,0,1,4,1.54,5.48,5.48,0,0,1,1.67,4.23v33.76a6.11,6.11,0,0,1-1.48,4,5.44,5.44,0,0,1-4.17,1.92H156.32q-5.65,0-5.65-5.65Z"/><path class="cls-1" d="M285,8.73a6.11,6.11,0,0,1,1.47-4.3,5.38,5.38,0,0,1,4.16-1.61H417.91a5.67,5.67,0,0,1,4.37,1.67A6.36,6.36,0,0,1,423.82,9V40.7a6.73,6.73,0,0,1-1.54,4.16,5.36,5.36,0,0,1-4.49,2H334.62V78.67h55.73a6.75,6.75,0,0,1,4,1.16A4.42,4.42,0,0,1,396,83.68V111.4a5.26,5.26,0,0,1-1.42,3.46,5,5,0,0,1-4.1,1.67H334.62v32.86h86.25q5.78,0,5.77,5.88v32.25a3.18,3.18,0,0,1-1,2.31q-.51,3.58-5.26,3.58H290.58a6,6,0,0,1-4.09-1.35,5.25,5.25,0,0,1-1.54-4.17Z"/><path class="cls-1" d="M429.33,190.07c.69-1.28,1.39-2.58,2.12-3.91s1.56-2.67,2.5-4l57.76-86.25L462.51,52q-14.44-21.69-29.2-43.89a13.4,13.4,0,0,1-1.22-1.93,6,6,0,0,1-.58-1.92,1.27,1.27,0,0,1,1.48-1,5,5,0,0,0,2.5-.57h44.67q4.74,0,7.44,4.87L519,54.8,550.87,7.57q2.7-4.87,7.45-4.87h42.73c.94,0,1.82,0,2.63.06a6,6,0,0,1,2.12.45,1.24,1.24,0,0,1,.9,1.15,5.57,5.57,0,0,1-1.41,3.34l-59,88.17,60.19,89.84a22.24,22.24,0,0,1,2,3.27,4.65,4.65,0,0,1,.58,2.51q0,1.92-2.31,1.92h-46a6.69,6.69,0,0,1-4-1.28,8.77,8.77,0,0,1-2.83-3.47L519,136.94l-34.52,51.72a8.83,8.83,0,0,1-2.82,3.47,6.74,6.74,0,0,1-4,1.28H431.64a2.87,2.87,0,0,1-1.79-.58,1.87,1.87,0,0,1-.77-1.6A2.6,2.6,0,0,1,429.33,190.07Z"/><path class="cls-1" d="M624.79,8.47a5.92,5.92,0,0,1,1.42-4,5.24,5.24,0,0,1,4.23-1.67h37.73a7.26,7.26,0,0,1,4.11,1.54,4.81,4.81,0,0,1,2.18,4.11V187.76q0,5.66-6.29,5.65H630.44c-3.76,0-5.65-1.88-5.65-5.65Z"/><path class="cls-1" d="M701,8.34a5.67,5.67,0,0,1,1.54-4A5.46,5.46,0,0,1,706.8,2.7h38a6,6,0,0,1,4,1.54,5.47,5.47,0,0,1,1.92,4.1V148H810a5.63,5.63,0,0,1,4,1.54,5.44,5.44,0,0,1,1.67,4.23v33.76a6.15,6.15,0,0,1-1.47,4,5.47,5.47,0,0,1-4.17,1.92H706.67q-5.64,0-5.64-5.65Z"/><path class="cls-1" d="M820.81,98.31a97,97,0,0,1,3.47-26.12,98.06,98.06,0,0,1,9.88-23.48,99.41,99.41,0,0,1,15.35-20,95.79,95.79,0,0,1,19.84-15.34,100.81,100.81,0,0,1,23.44-9.88,98.25,98.25,0,0,1,52.2,0,100.61,100.61,0,0,1,23.51,9.88,97.23,97.23,0,0,1,19.9,15.34,96.22,96.22,0,0,1,15.35,20,101.43,101.43,0,0,1,9.89,23.48,98.4,98.4,0,0,1,0,52.24,98.85,98.85,0,0,1-9.89,23.35,96.14,96.14,0,0,1-15.35,19.77,100.12,100.12,0,0,1-19.9,15.34,98.29,98.29,0,0,1-99.15,0,99.52,99.52,0,0,1-35.19-35.11,95.62,95.62,0,0,1-9.88-23.35A97.08,97.08,0,0,1,820.81,98.31Zm49.67-.13a54.51,54.51,0,0,0,3.58,19.89,49.25,49.25,0,0,0,10.07,16.11A46.84,46.84,0,0,0,899.44,145a50.54,50.54,0,0,0,39,0,46.61,46.61,0,0,0,15.38-10.78,49.06,49.06,0,0,0,10.06-16.11,56.73,56.73,0,0,0,0-39.72,49.61,49.61,0,0,0-10.06-16.23,47.81,47.81,0,0,0-69.72,0,49.8,49.8,0,0,0-10.07,16.23A54.73,54.73,0,0,0,870.48,98.18Z"/><path class="cls-1" d="M1158.47,56.6a55.53,55.53,0,0,0-14-7.19,48.51,48.51,0,0,0-15.91-2.57,46.37,46.37,0,0,0-34.72,15,50.8,50.8,0,0,0-9.94,16.24,56.22,56.22,0,0,0,0,39.59,50.3,50.3,0,0,0,9.94,16.11,46.49,46.49,0,0,0,15.21,10.84,47.07,47.07,0,0,0,19.51,4,61.93,61.93,0,0,0,8.92-.64q4.42-.64,9.43-1.67v-48a5.93,5.93,0,0,1,1.41-4,5.37,5.37,0,0,1,4.24-1.6h34.91a7.19,7.19,0,0,1,4.1,1.54,4.79,4.79,0,0,1,2.18,4.11V174.8q0,3.47-3.72,5.65a70.6,70.6,0,0,1-13.34,7.06,108.94,108.94,0,0,1-15.28,4.87,134.7,134.7,0,0,1-16.1,2.89,135.66,135.66,0,0,1-15.86,1,97.45,97.45,0,0,1-69.36-28.68,99.31,99.31,0,0,1-15.34-19.77,95.62,95.62,0,0,1-9.88-23.35,98.44,98.44,0,0,1,9.88-75.72,99.36,99.36,0,0,1,15.34-20,95.47,95.47,0,0,1,19.83-15.34,100.66,100.66,0,0,1,23.42-9.88,99.45,99.45,0,0,1,55.19.77,100,100,0,0,1,25.73,12.38,8.79,8.79,0,0,1,3.33,3.41q1.15,2.11-.51,4.81l-20.79,30a9.06,9.06,0,0,1-3.34,2.76Q1161.29,58.4,1158.47,56.6Z"/><path class="cls-2" d="M1361.2,89.2l-81.85-77.69s-8.9-8.77-21-8.77h-23.45a11.66,11.66,0,0,0-11.66,11.67V181.86a11.67,11.67,0,0,0,11.66,11.67H1261a25.55,25.55,0,0,0,17.81-7.24L1361.31,106A11.67,11.67,0,0,0,1361.2,89.2Z"/></g></g></svg>