<?xml version="1.0" encoding="utf-8"?>
<!-- Generator: Adobe Illustrator 15.0.0, SVG Export Plug-In . SVG Version: 6.00 Build 0)  -->
<!DOCTYPE svg PUBLIC "-//W3C//DTD SVG 1.1//EN" "http://www.w3.org/Graphics/SVG/1.1/DTD/svg11.dtd">
<svg version="1.1" id="Layer_1" xmlns="http://www.w3.org/2000/svg" xmlns:xlink="http://www.w3.org/1999/xlink" x="0px" y="0px"
	 width="242.725px" height="68.296px" viewBox="0 0 242.725 68.296" enable-background="new 0 0 242.725 68.296"
	 xml:space="preserve">
<g>
	<g>
		<g>
			<path fill="#FFFFFF" d="M3.58,48.41L6.388,47c-1.608-0.461-3.065-1.053-4.109-1.768C2.473,45.747,3.44,48.277,3.58,48.41z"/>
			<path fill="#FFFFFF" d="M50.026,33.249c0,0,2.832-4.401,3.026-5.591c0,0-0.996-2.599-1.156-2.759l-4.148,2.084
				C47.748,26.983,49.618,31.068,50.026,33.249z"/>
			<path fill="#FFFFFF" d="M43.973,15.441C36.309,9.185,27.07,9.847,27.07,9.847c2.982,0.947,8.233,3.788,8.233,3.788
				C40.608,14.135,43.973,15.441,43.973,15.441z"/>
			<path fill="#FFFFFF" d="M42.759,19.745c0.671-0.039,5.829,0.224,5.829,0.224c-1.346-1.885-3.556-3.648-3.556-3.648
				c-3.265-1.156-8.067-1.763-8.067-1.763C39.194,16.043,42.759,19.745,42.759,19.745z"/>
			<path fill="#FFFFFF" d="M47.223,26.225l4.084-2.05c-0.445-1.063-2.01-3.245-2.01-3.245c-3.809-0.306-3.77-0.312-5.786-0.312
				C43.511,20.619,45.877,23.534,47.223,26.225z"/>
			<path fill="#FFFFFF" d="M50.963,41.186c0,0,2.239-3.561,3.303-8.413c0,0-0.417-2.652-0.796-3.629c0,0-2.153,4.075-3.183,5.363
				C50.288,34.507,50.963,37.144,50.963,41.186z"/>
			<path fill="#FFFFFF" d="M54.552,34.633c-0.646,3.128-3.686,8.806-3.686,8.806c-0.044,3.73-1.909,9.706-1.909,9.706
				C55.713,44.876,54.552,34.633,54.552,34.633z"/>
			<path fill="#FFFFFF" d="M33.384,13.489c0,0-3.278-2.19-7.805-3.425c0,0-3.537,0.142-5.368,0.845c0,0,3.308,1.821,4.887,3.085
				C25.098,13.995,28.838,13.286,33.384,13.489z"/>
			<path fill="#FFFFFF" d="M41.604,19.77c0,0-2.949-3.196-6.514-5.411c0,0-4.455-0.511-8.996,0.354c0,0,4.493,3.541,6.605,6.053
				C32.7,20.766,37.348,19.789,41.604,19.77z"/>
			<path fill="#FFFFFF" d="M46.421,26.628c0,0-2.141-4.003-4.075-6.009c0,0-3.871-0.063-8.962,0.875c0,0,3.745,4.197,6.077,8.666
				C39.461,30.16,45.62,27.031,46.421,26.628z"/>
			<path fill="#FFFFFF" d="M49.219,34.264c-0.631-3.493-2.385-6.873-2.385-6.873l-6.951,3.574c1.972,3.435,3.731,9.88,3.731,9.88
				C46.893,37.892,49.219,34.264,49.219,34.264z"/>
			<path fill="#FFFFFF" d="M50.026,43.022c0.32-3.274-0.441-7.485-0.441-7.485C47.019,39.257,43.94,41.9,43.94,41.9
				c0.846,3.041,1.103,8.092,1.103,8.092C47.685,47.486,50.026,43.022,50.026,43.022z"/>
			<path fill="#FFFFFF" d="M45.115,51.246c0.142,1.884-0.155,6.013-0.155,6.013c0.462-0.185,2.172-2.06,2.172-2.06
				c0.471-0.523,1.335-3.469,1.335-3.469c1.001-2.777,1.395-6.576,1.395-6.576C48.54,47.645,45.115,51.246,45.115,51.246z"/>
			<path fill="#FFFFFF" d="M42.104,53.907c0.185,2.122-0.111,4.129-0.89,6.038c1.312-0.738,2.803-1.885,2.803-1.885
				c0.395-3.953,0.194-5.969,0.194-5.969C43.581,52.746,42.842,53.368,42.104,53.907z"/>
			<path fill="#FFFFFF" d="M41.977,52.892c0.826-0.617,1.604-1.307,2.2-2.018c0,0-0.136-4.996-1.02-8.284
				c0,0-1.336,1.427-4.639,3.526C40.394,47.883,41.55,50.138,41.977,52.892z"/>
			<path fill="#FFFFFF" d="M37.776,45.47c1.617-1.016,3.473-2.337,5.09-3.926c0,0-1.772-6.935-3.813-10.166l-10.725,5.426
				l2.846,5.601c0.204,0.044,0.379,0.083,0.52,0.126C34.158,43.216,36.188,44.193,37.776,45.47z"/>
			<path fill="#FFFFFF" d="M29.387,23.869l5.329,3.949l-0.166,0.995l-7.688,2.032l-2.331-1.589l3.419,6.728l10.691-5.455
				c0,0-3.153-5.669-6.253-8.792c0,0-5.493,1.238-9.393,3.182c0.504,0.019,0.966,0.039,1.374,0.034L29.387,23.869z"/>
			<path fill="#FFFFFF" d="M24.923,14.946c0,0-4.196,0.986-6.48,2.25l3.629,7.193c0,0,4.109-2.157,9.622-3.414
				C31.694,20.975,26.988,16.117,24.923,14.946z"/>
			<path fill="#FFFFFF" d="M23.903,14.262c0,0-3.235-2.342-4.979-2.938c0,0-2.517,0.928-2.904,1.166l2.006,3.895
				C18.026,16.384,22.374,14.587,23.903,14.262z"/>
			<path fill="#FFFFFF" d="M11.497,57.876c7.666,6.266,16.914,5.594,16.914,5.594c-2.982-0.951-8.233-3.787-8.233-3.787
				C14.874,59.183,11.497,57.876,11.497,57.876z"/>
			<path fill="#FFFFFF" d="M12.722,53.578c-0.67,0.027-5.829-0.238-5.829-0.238c1.34,1.898,3.555,3.652,3.555,3.652
				c3.265,1.16,8.063,1.768,8.063,1.768C16.287,57.269,12.722,53.578,12.722,53.578z"/>
			<path fill="#FFFFFF" d="M4.168,49.147c0.446,1.055,2.01,3.229,2.01,3.229c3.813,0.307,3.771,0.316,5.79,0.316
				c0,0-2.117-2.594-3.487-5.154c-0.257-0.063-0.51-0.116-0.763-0.184L4.168,49.147z"/>
			<path fill="#FFFFFF" d="M4.677,28.712c0.326-3.691,1.847-8.544,1.847-8.544c-2.949,3.609-4.392,7.592-5.076,10.935
				c0.398-0.378,1.495-1.186,1.957-1.525C3.803,29.271,4.231,28.989,4.677,28.712z"/>
			<path fill="#FFFFFF" d="M30.377,59.313c0,0-3.822,0.806-8.378,0.608c0,0,3.929,2.385,8.636,3.403c0,0,2.308-0.262,3.91-0.689
				c0.092-0.155,0.175-0.329,0.258-0.485C33.836,61.596,31.591,60.285,30.377,59.313z"/>
			<path fill="#FFFFFF" d="M29.387,58.605c0,0-4.504-3.551-6.606-6.053c0,0-4.647,0.971-8.908,1c0,0,2.948,3.191,6.519,5.406
				C20.391,58.958,24.84,59.473,29.387,58.605z"/>
			<path fill="#FFFFFF" d="M13.134,52.693c0,0,3.872,0.068,8.957-0.869c0,0-1.054-1.186-2.399-2.964
				c-3.352-0.369-6.703-0.728-10.035-1.122C10.419,49.069,11.828,51.337,13.134,52.693z"/>
			<path fill="#FFFFFF" d="M6.791,38.276c1.438,1.186,4.075,1.952,7.908,2.308c-1.579-3.502-2.832-8.117-2.832-8.117
				C9.515,34.585,7.656,37.052,6.791,38.276z"/>
			<path fill="#FFFFFF" d="M11.537,31.412c-0.2-0.713-0.365-1.548-0.501-2.404c-1.044,0.413-1.981,0.895-2.787,1.458
				C6.106,32,5.202,33.905,5.533,36.187c0.069,0.481,0.253,0.928,0.55,1.336C8.603,33.938,11.537,31.412,11.537,31.412z"/>
			<path fill="#FFFFFF" d="M10.439,23.32c-1.215,1.156-2.371,2.73-3.27,4.09c1.073-0.471,2.235-0.884,3.498-1.245
				C10.501,24.559,10.439,23.32,10.439,23.32z"/>
			<path fill="#FFFFFF" d="M10.361,22.067c-0.136-1.879,0.161-6.013,0.161-6.013c-0.462,0.195-2.177,2.06-2.177,2.06
				c-0.471,0.528-1.331,3.472-1.331,3.472c-1,2.77-1.395,6.567-1.395,6.572l0,0C6.937,25.676,10.361,22.067,10.361,22.067z"/>
			<path fill="#FFFFFF" d="M17.258,17.016l-2.089-4.094c-1.398,0.568-3.711,2.331-3.711,2.331c-0.393,3.954-0.199,5.974-0.199,5.974
				C13.557,18.836,17.258,17.016,17.258,17.016z"/>
			<path fill="#FFFFFF" d="M19.954,24.875c0.374-0.01,0.725-0.01,1.074-0.01c0.048-0.024,0.092-0.049,0.141-0.073l-3.531-6.985
				c0,0-4.313,2.23-6.339,4.63c0,0,0.044,1.554,0.233,3.497c1.045-0.267,2.147-0.5,3.308-0.699
				C15.966,25.045,17.671,24.923,19.954,24.875z"/>
			<path fill="#FFFFFF" d="M16.01,27.818c-0.364,0.044-0.729,0.097-1.104,0.165c-1.088,0.175-2.088,0.422-3.011,0.729
				c0.116,0.7,0.257,1.389,0.428,2.016C12.324,30.728,13.396,29.577,16.01,27.818z"/>
			<path fill="#FFFFFF" d="M17.982,27.668c-1.671,1.024-3.657,2.418-5.368,4.104c0,0,1.38,5.411,3.109,8.899
				c0.952,0.082,1.855,0.164,2.72,0.247l8.705-4.4l-4.235-8.35l-0.049-0.034C21.314,27.765,19.682,27.614,17.982,27.668z"/>
			<path fill="#FFFFFF" d="M20.873,48.977c0.718,0.938,1.471,1.846,2.219,2.599c0,0,2.507-0.555,5.334-1.53
				c-0.782-0.198-1.627-0.397-2.53-0.538C24.219,49.332,22.548,49.162,20.873,48.977z"/>
			<path fill="#FFFFFF" d="M27.522,37.33l-7.34,3.754c4.576,0.433,7.85,0.801,9.821,1.112L27.522,37.33z"/>
			<path fill="#FFFFFF" d="M29.838,50.492c-1.627,0.622-3.716,1.322-6.052,1.847c0,0,4.707,4.852,6.771,6.028
				c0,0,2.891-0.676,5.184-1.638c-0.014-0.054-0.014-0.106-0.024-0.155C35.303,53.76,33.351,51.73,29.838,50.492z"/>
			<path fill="#FFFFFF" d="M35.813,57.589c-1.398,0.553-3.322,1.277-4.235,1.477c0,0,1.914,1.373,3.585,2.277
				C35.643,60.144,35.857,58.88,35.813,57.589z"/>
			<path fill="#FFFFFF" d="M14.864,4.795c0,0,9.127-4.819,19.745-3.663c-0.136-0.01,11.099,0.802,19.487,8.723
				c0,0,8.471,6.961,10.06,19.512c0,0,0.714,5.377-0.354,11.007c0,0-1.112,7.85-6.412,15.131c0,0-4.443,7.159-13.862,11.891
				c0,0-0.661,0.476-0.757-0.816c0,0-0.259-1.943,0.592-2.953c0,0,0.121-0.116,0.271-0.194c0,0,2.06-0.854,4.013-2.292
				c0,0,2.225-1.512,2.38-1.721c0,0,3.221-2.477,4.847-4.614c0,0,2.648-2.899,4.3-6.183c0,0,2.734-4.828,3.322-9.9
				c0,0,0.369-1.397,0.208-5.241c0,0-0.218-3.618-1.116-6.522c0,0-1.354-4.44-3.57-7.705c0,0-1.612-2.656-4.546-5.372
				c0,0-2.308-2.327-6.116-4.469l-1.277-0.695c-2.094-1.021-3.521-1.496-3.521-1.496c-0.325-0.136-3.152-0.966-3.152-0.966
				c0.16,0.058-11.104-3.863-24.787,2.549c0,0-0.228,0.204-0.471-0.156c0,0-0.403-0.772-0.219-1.972c0,0,0.014-0.344,0.204-0.917
				c0.097-0.423,0.403-0.783,0.524-0.865L14.864,4.795z"/>
			<path fill="#FFFFFF" d="M6.737,19.337"/>
			<path fill="#FFFFFF" d="M25.467,9.729"/>
		</g>
		<g>
			<path fill="#FFFFFF" d="M80.51,54.528c-0.397,0-0.801-0.014-1.21-0.038c0.307-1.068,0.706-2.297,1.195-3.667
				c0.521,1.37,0.928,2.599,1.22,3.677C81.311,54.514,80.914,54.528,80.51,54.528z M84.435,58.036l-0.554-0.131
				c-0.446-1.122-0.918-2.414-1.403-3.876c-0.248-0.782-0.671-2.085-1.254-3.93l-0.242-0.131c-0.286,0.154-0.607,0.286-0.957,0.407
				c-1.005,3.4-1.866,5.907-2.594,7.529l-0.544,0.131v0.302c0.602-0.054,1.341-0.054,2.205,0v-0.302l-0.719-0.131
				c0.262-1.2,0.525-2.137,0.771-2.837l1.36-0.039l1.385,0.039c0.369,1.121,0.65,2.06,0.845,2.837l-0.748,0.131v0.302
				c0.962-0.054,1.773-0.054,2.448,0V58.036z"/>
			<path fill="#FFFFFF" d="M99.837,53.406c-0.388,0.264-0.89,0.395-1.511,0.395c-0.306,0-0.67-0.024-1.082-0.078v-0.685
				c0-0.539,0.023-1.331,0.087-2.375c0.393-0.093,0.815-0.132,1.258-0.132c1.307,0,1.962,0.49,1.962,1.468
				C100.551,52.63,100.315,53.091,99.837,53.406z M102.586,57.905l-0.558-0.121c-0.694-0.763-1.651-1.948-2.872-3.585
				c0.681-0.078,1.239-0.292,1.682-0.662c0.5-0.432,0.753-0.984,0.753-1.674c0-0.67-0.229-1.157-0.68-1.487
				c-0.394-0.276-0.919-0.423-1.574-0.423c-0.214,0-0.835,0.016-1.875,0.039c-0.776,0.039-1.408,0.039-1.894,0v0.316l0.664,0.131
				c0.074,0.516,0.107,1.414,0.107,2.666v2.002c0,1.253-0.033,2.151-0.107,2.677l-0.664,0.121v0.315
				c0.408-0.029,0.815-0.039,1.223-0.039c0.414,0,0.816,0.01,1.229,0.039v-0.315l-0.675-0.121c-0.068-0.525-0.102-1.424-0.102-2.677
				v-0.801h0.961c0.719,0.906,1.672,2.254,2.871,4.045c0.437-0.092,0.942-0.146,1.51-0.146V57.905z"/>
			<path fill="#FFFFFF" d="M122.221,54.369l-0.429,0.121c-0.028,0.554-0.043,1.438-0.043,2.647l0.423,0.214
				c-0.384,0.286-0.89,0.539-1.541,0.747c-0.641,0.214-1.204,0.307-1.699,0.307c-1.093,0-2.03-0.397-2.778-1.215
				c-0.757-0.816-1.127-1.831-1.127-3.016c0-1.282,0.389-2.321,1.175-3.114c0.763-0.775,1.733-1.176,2.93-1.176
				c0.845,0,1.607,0.176,2.298,0.491c-0.155,0.485-0.277,1.001-0.341,1.579l-0.286-0.039v-0.777
				c-0.709-0.393-1.37-0.607-1.977-0.607c-0.899,0-1.608,0.344-2.133,1.045c-0.471,0.631-0.709,1.438-0.709,2.424
				c0,1.016,0.262,1.885,0.797,2.598c0.571,0.793,1.315,1.176,2.238,1.176c0.652,0,1.254-0.198,1.822-0.598l-0.039-2.686
				l-0.865-0.121v-0.33c1.045,0.053,1.813,0.053,2.284,0V54.369z"/>
			<path fill="#FFFFFF" d="M141.97,56.574c-0.186,0.593-0.292,1.146-0.34,1.646c-0.341,0-0.981,0-1.923,0c-0.817,0-1.457,0-1.934,0
				c-0.71,0.014-1.351,0.024-1.924,0.039v-0.301l0.681-0.122c0.058-0.524,0.096-1.423,0.096-2.677v-2.006
				c0-1.248-0.038-2.146-0.096-2.676l-0.681-0.131v-0.302c0.534,0.015,1.127,0.038,1.797,0.038c0.437,0,1.04,0,1.808,0
				c0.884,0,1.486,0,1.807,0c0.01,0.715,0.126,1.225,0.311,1.531l-0.301,0.105l-0.418-0.806c-0.593-0.169-1.671-0.262-3.206-0.262
				c-0.078,0.485-0.117,1.423-0.117,2.821c0.701,0,1.545-0.027,2.546-0.106l0.175-0.539h0.281c-0.048,0.577-0.048,1.2,0,1.87h-0.281
				l-0.175-0.646c-0.621-0.053-1.476-0.078-2.546-0.078v0.977c0,1.264,0.039,2.148,0.117,2.624c0.359,0.053,0.71,0.063,1.078,0.063
				c0.681,0,1.516-0.063,2.507-0.21l0.476-0.975L141.97,56.574z"/>
			<path fill="#FFFFFF" d="M162.75,50.308l-0.66,0.131c-0.097,0.869-0.165,1.899-0.165,3.098c0,0.638,0.02,1.439,0.068,2.415
				c0.047,1.331,0.058,2.108,0.058,2.36c-0.243-0.053-0.485-0.053-0.719,0c-1.884-2.953-3.342-5.289-4.38-7.014
				c0.009,1.078,0.028,2.162,0.028,3.246c0.009,1.248,0.068,2.33,0.154,3.239l0.671,0.121v0.315c-0.709-0.053-1.438-0.053-2.195,0
				v-0.315l0.65-0.121c0.067-0.525,0.107-1.424,0.107-2.677v-2.002c0-1.252-0.04-2.15-0.107-2.666l-0.65-0.131v-0.316
				c0.611,0.039,1.156,0.039,1.573,0c0.506,1.016,1.175,2.176,2.021,3.492c0.738,1.137,1.468,2.269,2.186,3.391
				c0-1.068,0-2.146,0-3.23c-0.02-1.238-0.076-2.307-0.164-3.205l-0.67-0.131v-0.316c0.699,0.054,1.446,0.054,2.194,0V50.308z"/>
			<path fill="#FFFFFF" d="M183.48,51.56l-0.301,0.118l-0.389-0.777c-0.495-0.171-1.194-0.263-2.108-0.263
				c-0.066,0.646-0.106,1.477-0.106,2.507v1.991c0,1.262,0.04,2.146,0.106,2.677l0.671,0.13v0.302
				c-0.408-0.024-0.815-0.04-1.224-0.04c-0.407,0-0.815,0.016-1.225,0.04v-0.302l0.671-0.13c0.068-0.53,0.106-1.415,0.106-2.677
				v-1.991c0-1.03-0.038-1.861-0.106-2.507c-0.913,0-1.603,0.092-2.107,0.263l-0.38,0.777l-0.291-0.118
				c0.165-0.446,0.291-0.947,0.34-1.5h5.984C183.19,50.613,183.306,51.114,183.48,51.56z"/>
			<path fill="#FFFFFF" d="M199.977,58.259c-0.409-0.025-0.816-0.039-1.224-0.039c-0.408,0-0.827,0.014-1.235,0.039v-0.301
				l0.66-0.122c0.068-0.524,0.107-1.423,0.107-2.677v-2.006c0-1.248-0.039-2.146-0.107-2.676l-0.66-0.131v-0.302
				c0.408,0.024,0.827,0.038,1.235,0.038c0.407,0,0.814-0.014,1.224-0.038v0.302l-0.69,0.131c-0.049,0.529-0.087,1.428-0.087,2.676
				v2.006c0,1.254,0.038,2.152,0.087,2.677l0.69,0.122V58.259z"/>
			<path fill="#FFFFFF" d="M221.164,50.308l-0.661,0.131c-0.105,0.869-0.174,1.899-0.174,3.098c0,0.638,0.02,1.439,0.068,2.415
				c0.038,1.331,0.068,2.108,0.068,2.36c-0.253-0.053-0.487-0.053-0.74,0c-1.874-2.953-3.321-5.289-4.361-7.014
				c0.011,1.078,0.011,2.162,0.021,3.246c0.02,1.248,0.067,2.33,0.165,3.239l0.66,0.121v0.315c-0.699-0.053-1.438-0.053-2.206,0
				v-0.315l0.671-0.121c0.068-0.525,0.107-1.424,0.107-2.677v-2.002c0-1.252-0.039-2.15-0.107-2.666l-0.671-0.131v-0.316
				c0.632,0.039,1.176,0.039,1.593,0c0.507,1.016,1.178,2.176,2.022,3.492c0.719,1.137,1.456,2.269,2.186,3.391
				c0-1.068-0.011-2.146-0.011-3.23c-0.019-1.238-0.077-2.307-0.164-3.205l-0.681-0.131v-0.316c0.71,0.054,1.448,0.054,2.215,0
				V50.308z"/>
			<path fill="#FFFFFF" d="M237.417,54.528c-0.389,0-0.797-0.014-1.195-0.038c0.303-1.068,0.699-2.297,1.186-3.667
				c0.516,1.37,0.924,2.599,1.215,3.677C238.223,54.514,237.815,54.528,237.417,54.528z M241.351,58.036l-0.555-0.131
				c-0.446-1.122-0.922-2.414-1.408-3.876c-0.252-0.782-0.68-2.085-1.253-3.93l-0.242-0.131c-0.292,0.154-0.612,0.286-0.962,0.407
				c-1.001,3.4-1.875,5.907-2.584,7.529l-0.555,0.131v0.302c0.612-0.054,1.352-0.054,2.216,0v-0.302l-0.72-0.131
				c0.263-1.2,0.515-2.137,0.759-2.837l1.369-0.039l1.379,0.039c0.38,1.121,0.651,2.06,0.836,2.837l-0.738,0.131v0.302
				c0.973-0.054,1.788-0.054,2.458,0V58.036z"/>
			<g>
				<path fill="#FFFFFF" d="M77.838,30.237h0.996c0.787,4.955,3.288,7.491,7.32,7.491c3.371,0,5.741-2.289,5.741-5.495
					c0-1.617-0.666-2.987-1.827-3.905c-0.917-0.67-1.165-0.792-3.997-2.292c-4.658-2.327-5.614-2.993-6.615-4.246
					c-0.748-0.996-1.161-2.409-1.161-3.948c0-4.372,3.196-7.325,7.908-7.325c2.288,0,3.823,0.626,5.439,2.171l1.258-2.336h0.744
					v7.655h-1.001c-0.957-4.241-2.87-6.199-6.115-6.199c-2.953,0-5.241,2.206-5.241,5.076c0,2.166,0.956,3.211,4.58,5.038
					l1.87,0.956c2.74,1.375,3.624,1.87,4.741,2.701c1.666,1.296,2.492,3.163,2.492,5.493c0,4.698-3.362,7.947-8.316,7.947
					c-2.579,0-4.532-0.714-6.577-2.419l-1.491,2.667h-0.748V30.237z"/>
				<path fill="#FFFFFF" d="M118.232,29.285h1.501c-0.252,6.154-3.706,9.861-9.15,9.861c-6.665,0-11.026-5.703-11.026-14.31
					c0-8.744,4.361-14.441,11.138-14.441c2.667,0,4.629,0.748,6.498,2.497l1.458-2.415h0.743v8.15h-0.951
					c-1.177-4.658-3.498-6.902-7.243-6.902c-5.113,0-7.907,4.614-7.907,12.983c0,8.068,2.794,12.611,7.825,12.611
					C115.323,37.32,117.935,34.361,118.232,29.285z"/>
				<path fill="#FFFFFF" d="M135.131,37.771v0.996c-2.672-0.248-3.672-0.33-5.207-0.33c-1.584,0-2.574,0.082-5.198,0.33v-0.996
					l0.447-0.043c2.536-0.205,2.954-0.623,2.954-2.75v-20.42c0-2.244-0.331-2.536-3.401-2.75v-1.035
					c2.575,0.253,3.575,0.326,5.198,0.326c1.622,0,2.622-0.072,5.207-0.326v1.035c-3.09,0.214-3.469,0.505-3.469,2.75v20.42
					c0,2.127,0.428,2.545,2.963,2.75L135.131,37.771z"/>
				<path fill="#FFFFFF" d="M160.448,31.942l-0.913,6.698h-18.352v-0.995c3.071-0.249,3.41-0.54,3.41-2.789V14.684
					c0-2.249-0.418-2.584-3.41-2.75v-1.039h18.09l0.747,6.241h-0.942c-1.049-3.954-2.011-4.949-4.926-4.949h-6.023v11.395h5.947
					c1.875,0,2.33-0.622,2.467-3.416h1.029v8.161h-1.029c-0.097-2.705-0.671-3.453-2.682-3.453h-5.732V34.9
					c0,1.992,0.545,2.453,2.799,2.453h2.934c3.303,0,4.595-1.209,5.674-5.411H160.448z"/>
				<path fill="#FFFFFF" d="M186.833,39.471h-0.642l-0.902-1.452l-1.176-1.826l-1.205-1.792l-1.001-1.54l-12.26-18.468v20.585
					c0,2.249,0.33,2.545,3.4,2.793v0.996c-2.41-0.166-3.157-0.209-4.206-0.209c-1.041,0-1.827,0.043-4.032,0.209v-0.996
					c3.09-0.248,3.459-0.544,3.459-2.793V13.013c-0.875-0.875-1.497-1.079-3.498-1.205v-1.035c1.544,0.123,2.158,0.161,3.498,0.161
					c1.293,0,1.739-0.038,3.04-0.161l14.098,21.09V14.558c0-2.205-0.381-2.536-3.421-2.75v-1.035
					c2.303,0.161,3.128,0.205,4.206,0.205c1.128,0,1.915-0.044,4.042-0.205v1.035c-3.031,0.214-3.4,0.545-3.4,2.75V39.471z"/>
				<path fill="#FFFFFF" d="M192.779,38.64l15.067-26.452h-7.005c-3.108,0-4.362,1.117-5.313,4.862h-1.078l1.116-6.154h16.894
					l-15.019,26.457h7.868c2.866,0,3.779-0.461,4.994-2.535c0.524-1.005,0.748-1.501,1.291-2.914h1.001l-1.253,6.736H192.779z"/>
				<path fill="#FFFFFF" d="M226.973,16.588l4.041,12.736h-8.821L226.973,16.588z M232.841,35.109l0.136,0.709
					c0.078,0.286,0.116,0.495,0.116,0.616c0,0.836-0.661,1.166-2.662,1.336v0.996c2.332-0.248,3.246-0.287,5.081-0.33
					c1.826,0,2.74,0.082,5.071,0.33v-0.996c-2.661-0.209-3.245-0.588-3.876-2.502l-8.559-25.243l-9.49,24.792
					c-0.914,2.409-1.37,2.744-3.993,2.953v0.996c1.913-0.166,2.623-0.209,3.953-0.209c1.331,0,2.041,0.043,3.954,0.209v-0.996
					c-2.119-0.126-2.74-0.418-2.74-1.336c0-0.369,0.155-0.914,0.535-1.914l1.359-3.905h9.705L232.841,35.109z"/>
			</g>
		</g>
	</g>
</g>
</svg>
